<svg width="20" height="20" viewBox="0 0 20 20" fill="none" xmlns="http://www.w3.org/2000/svg">
<path d="M10 0.173828C4.71742 0.173828 0.434814 4.58157 0.434814 10.0186C0.434814 15.4557 4.71742 19.863 10 19.863C15.2826 19.863 19.5653 15.4556 19.5653 10.0186C19.5653 4.58157 15.2827 0.173828 10 0.173828ZM10 1.44844C14.5914 1.44844 18.3266 5.29296 18.3266 10.0186C18.3266 14.7439 14.5914 18.5885 10 18.5885C5.40855 18.5885 1.67342 14.7439 1.67342 10.0186C1.67351 5.29296 5.40864 1.44844 10 1.44844Z" fill="#949494"/>
<path d="M10.0001 15.1971L6.08545 12.1754V14.8733H4.65649V9.23413L10.0001 13.3588L15.3435 9.23413V14.8733H13.9148V12.1754L10.0001 15.1971Z" fill="#949494"/>
<path d="M6.0855 7.95519L10.0001 10.9768L13.9146 7.95519V7.41128L10.0001 10.4332L6.0855 7.41128V7.95519ZM10 12.8154L4.65637 8.69049V4.46997L10 8.59484L15.3437 4.46997V8.69049L10 12.8154Z" fill="#949494"/>
</svg>
