<svg width="300" height="143" viewBox="0 0 300 143" fill="none" xmlns="http://www.w3.org/2000/svg">
<g clip-path="url(#clip0)">
<path d="M269.369 10.5485C271.568 11.8621 271.788 14.0514 270.689 14.7082C268.93 15.8028 269.589 17.5542 270.909 16.8974C277.946 13.1757 279.045 8.35925 278.825 5.95104C278.605 3.3239 276.626 0.696767 272.668 0.696767C268.71 0.696767 266.511 3.54283 266.511 6.38889C266.291 7.70246 267.39 9.45389 269.369 10.5485ZM33.8636 137.308L33.2039 143C209.779 101.404 292.458 108.19 292.458 108.19C294.877 101.185 299.275 95.4927 299.275 95.4927C215.276 95.0547 129.077 113.445 34.0835 136.87L33.8636 137.308ZM56.2927 52.5827L50.7954 100.747L63.5492 98.5576L72.5648 17.5542L56.7325 20.8381L35.1829 70.7538L22.649 28.0628L8.79574 30.9088L0 109.066L13.1936 106.22L18.2512 60.0262L28.3662 95.2737C33.6437 93.3033 38.9211 93.0845 38.9211 93.0845L56.2927 52.5827ZM88.1771 88.7058C97.8526 90.2383 107.088 81.4813 109.067 69.4402C109.727 65.4995 109.507 61.5588 108.407 58.056C113.685 54.9909 116.543 51.4881 116.543 51.4881C118.742 52.1449 119.622 51.4881 119.622 51.4881C119.402 53.4585 114.564 76.4459 119.402 80.6055C125.559 86.0786 137.653 71.1916 140.952 67.6887C140.952 67.4699 141.171 67.4699 141.171 67.4699C144.03 76.6648 151.946 79.5109 160.302 68.7834C160.082 69.878 160.082 70.7538 159.862 71.6294C159.862 71.6294 159.862 71.6294 159.862 71.8484C145.79 82.3569 131.496 95.9305 135.454 105.126C138.533 112.131 164.04 114.977 170.637 75.1323C170.637 74.4756 170.857 73.381 171.077 71.8484C177.015 67.2509 181.852 63.7481 183.83 62.6534C188.668 69.6591 197.904 70.5348 205.161 60.4642C207.58 62.6534 215.934 69.4402 227.369 53.2395C227.15 55.6477 226.71 58.7128 226.49 59.8074C226.49 59.8074 232.207 57.837 237.925 57.3992C237.925 57.3992 240.564 33.9738 241.223 30.69C242.543 21.2759 251.997 18.211 251.117 26.9681C250.238 35.7253 250.018 39.6659 249.578 43.1688C247.381 62.4345 266.731 51.4881 271.788 45.577C276.406 48.4231 285.201 51.4881 295.536 42.293C299.495 38.7903 301.694 30.9088 298.395 19.5246C297.735 17.5542 292.678 8.14033 297.516 3.76177C298.395 2.88604 301.914 -0.397874 296.416 0.0399827C290.918 0.477838 287.62 3.98069 286.74 8.7971C286.3 10.7675 286.3 12.5189 284.981 15.8028C283.662 19.0867 279.045 28.2816 275.527 32.2224C273.987 30.0332 270.029 29.5952 267.39 31.7846C264.971 33.536 262.772 37.2577 267.83 42.512C265.411 46.0148 261.233 47.9852 261.673 42.9498C262.333 37.9145 263.432 28.7196 263.872 23.0275C264.971 11.4242 254.196 7.04568 243.202 18.211C243.202 18.211 242.543 19.5246 243.422 14.2703C243.422 14.2703 243.422 14.2703 243.202 14.2703L231.548 16.6786C227.15 58.9316 215.056 57.837 215.496 51.2691C215.934 44.4824 216.814 34.8495 219.233 19.3057L207.14 21.9327C207.14 21.9327 206.92 23.2463 206.7 24.9978C201.642 21.9327 187.349 19.0867 181.413 44.0446C180.093 49.2987 180.313 54.1152 181.633 58.056C179.653 59.1506 176.355 61.3398 172.397 63.9669C174.156 49.7367 176.575 28.5006 176.575 28.5006L164.92 30.0332C164.92 30.0332 164.7 31.1278 164.48 33.317C158.983 29.5952 145.13 27.8438 140.732 51.9259C140.292 54.772 140.072 57.3992 140.072 59.8074C129.957 73.8188 128.857 68.3455 129.517 64.6237C130.177 61.9966 133.255 41.1984 133.915 36.3821C133.255 36.6009 125.999 37.4767 125.119 37.6957C124.24 37.9145 123.8 38.1335 123.36 39.0091C122.261 41.1984 121.601 41.1984 120.721 41.1984C119.842 41.1984 119.402 40.7606 118.962 39.8849C117.643 37.6957 114.784 36.6009 112.365 37.9145C107.528 40.1038 109.727 44.9202 110.386 46.0148C111.046 47.1095 110.826 47.9852 110.167 48.642C109.507 49.2987 108.407 50.1745 105.329 51.7071C102.91 47.9852 99.1718 45.577 94.9938 44.9202C85.3185 43.3878 76.0831 52.1449 74.1041 64.1859C72.3448 76.2269 78.5018 87.1734 88.1771 88.7058ZM144.69 103.812C140.952 100.528 147.329 92.8655 156.124 84.984C153.485 96.1494 148.868 107.534 144.69 103.812ZM288.939 25.4357C289.819 33.317 292.678 34.8495 290.918 39.4471C288.5 44.9202 282.344 44.9202 280.804 39.0091C282.564 37.2577 288.939 25.4357 288.939 25.4357ZM191.087 46.6716C192.846 33.0981 200.983 33.7549 204.061 35.0685C203.401 41.4174 202.742 48.2041 202.522 50.1745C201.422 58.9316 189.108 61.7777 191.087 46.6716ZM149.966 54.9909C152.385 38.5713 160.522 40.7606 161.841 45.1392C161.401 49.9555 160.742 55.4288 160.082 60.4642C157.883 70.7538 147.989 68.7834 149.966 54.9909ZM82.46 67.9077C83.5595 60.902 87.7375 56.3044 91.6954 56.9612C95.6535 57.618 97.8526 63.0913 96.7531 70.097C95.6535 77.1027 92.1352 81.2623 88.1771 80.6055C84.2192 80.1677 81.3606 74.9134 82.46 67.9077Z" fill="white"/>
<path d="M205.651 134.874C205.651 134.339 205.466 133.93 205.094 133.647C204.721 133.358 204.051 133.056 203.084 132.742C202.116 132.421 201.349 132.106 200.784 131.798C199.247 130.955 198.478 129.82 198.478 128.392C198.478 127.65 198.682 126.99 199.091 126.411C199.507 125.826 200.1 125.37 200.869 125.043C201.644 124.716 202.513 124.552 203.474 124.552C204.443 124.552 205.305 124.732 206.061 125.09C206.818 125.442 207.405 125.942 207.82 126.59C208.242 127.238 208.453 127.974 208.453 128.798H205.662C205.662 128.169 205.466 127.681 205.075 127.336C204.684 126.983 204.135 126.807 203.428 126.807C202.745 126.807 202.215 126.955 201.836 127.251C201.459 127.54 201.269 127.924 201.269 128.402C201.269 128.848 201.489 129.223 201.929 129.524C202.376 129.826 203.03 130.109 203.894 130.374C205.481 130.858 206.639 131.459 207.364 132.176C208.091 132.893 208.453 133.786 208.453 134.855C208.453 136.044 208.009 136.978 207.122 137.657C206.235 138.33 205.041 138.667 203.54 138.667C202.497 138.667 201.548 138.475 200.691 138.091C199.836 137.701 199.181 137.17 198.728 136.497C198.281 135.824 198.058 135.044 198.058 134.157H200.859C200.859 135.673 201.753 136.431 203.54 136.431C204.204 136.431 204.721 136.295 205.094 136.025C205.466 135.748 205.651 135.364 205.651 134.874Z" fill="white"/>
<path d="M213.013 138.478H210.315V128.27H213.013V138.478ZM210.156 125.628C210.156 125.219 210.29 124.883 210.556 124.619C210.829 124.354 211.199 124.222 211.663 124.222C212.123 124.222 212.489 124.354 212.761 124.619C213.035 124.883 213.172 125.219 213.172 125.628C213.172 126.043 213.032 126.383 212.752 126.647C212.48 126.911 212.116 127.043 211.663 127.043C211.21 127.043 210.845 126.911 210.565 126.647C210.293 126.383 210.156 126.043 210.156 125.628Z" fill="white"/>
<path d="M217.713 128.27L217.796 129.449C218.516 128.537 219.481 128.081 220.691 128.081C221.757 128.081 222.552 128.399 223.073 129.034C223.593 129.669 223.861 130.619 223.873 131.883V138.478H221.183V131.949C221.183 131.371 221.059 130.952 220.812 130.694C220.563 130.43 220.15 130.298 219.574 130.298C218.816 130.298 218.249 130.625 217.871 131.279V138.478H215.182V128.27H217.713Z" fill="white"/>
<path d="M230.107 136.468C230.604 136.468 231.007 136.33 231.317 136.053C231.628 135.777 231.789 135.409 231.801 134.949H234.323C234.317 135.641 234.131 136.277 233.766 136.855C233.399 137.428 232.896 137.874 232.258 138.195C231.625 138.509 230.924 138.667 230.154 138.667C228.715 138.667 227.579 138.204 226.749 137.28C225.917 136.349 225.501 135.066 225.501 133.431V133.251C225.501 131.679 225.915 130.424 226.739 129.487C227.565 128.55 228.696 128.081 230.136 128.081C231.395 128.081 232.404 128.446 233.16 129.175C233.923 129.899 234.312 130.864 234.323 132.072H231.801C231.789 131.544 231.628 131.116 231.317 130.789C231.007 130.456 230.598 130.289 230.09 130.289C229.462 130.289 228.989 130.522 228.666 130.987C228.35 131.446 228.191 132.195 228.191 133.232V133.515C228.191 134.566 228.35 135.321 228.666 135.78C228.982 136.239 229.462 136.468 230.107 136.468Z" fill="white"/>
<path d="M240.494 138.667C239.017 138.667 237.813 138.208 236.882 137.289C235.959 136.371 235.496 135.148 235.496 133.619V133.355C235.496 132.33 235.692 131.415 236.082 130.61C236.473 129.798 237.025 129.175 237.738 128.742C238.459 128.301 239.278 128.081 240.195 128.081C241.573 128.081 242.655 128.521 243.443 129.402C244.238 130.283 244.634 131.531 244.634 133.148V134.261H238.223C238.309 134.928 238.57 135.462 239.004 135.865C239.445 136.267 240 136.468 240.67 136.468C241.707 136.468 242.516 136.088 243.099 135.327L244.42 136.827C244.018 137.406 243.472 137.859 242.783 138.186C242.094 138.506 241.331 138.667 240.494 138.667ZM240.186 130.289C239.653 130.289 239.218 130.471 238.883 130.836C238.555 131.201 238.344 131.723 238.251 132.402H241.992V132.185C241.979 131.581 241.817 131.116 241.507 130.789C241.197 130.456 240.757 130.289 240.186 130.289Z" fill="white"/>
<path d="M257.337 138.478H254.648V127.968L251.438 128.977V126.76L257.049 124.722H257.337V138.478Z" fill="white"/>
<path d="M270.58 128.392C270.58 129.059 270.415 129.65 270.086 130.166C269.758 130.682 269.305 131.094 268.727 131.402C269.385 131.723 269.907 132.166 270.291 132.732C270.676 133.292 270.868 133.952 270.868 134.713C270.868 135.934 270.459 136.899 269.64 137.61C268.82 138.314 267.708 138.667 266.3 138.667C264.89 138.667 263.774 138.311 262.949 137.601C262.124 136.89 261.711 135.927 261.711 134.713C261.711 133.952 261.903 133.289 262.287 132.723C262.673 132.157 263.19 131.716 263.843 131.402C263.265 131.094 262.812 130.682 262.484 130.166C262.161 129.65 261.999 129.059 261.999 128.392C261.999 127.222 262.384 126.291 263.154 125.6C263.923 124.901 264.968 124.552 266.289 124.552C267.604 124.552 268.647 124.898 269.416 125.59C270.192 126.276 270.58 127.21 270.58 128.392ZM268.169 134.515C268.169 133.918 267.999 133.44 267.657 133.081C267.316 132.723 266.857 132.543 266.281 132.543C265.71 132.543 265.254 132.723 264.912 133.081C264.571 133.434 264.4 133.912 264.4 134.515C264.4 135.1 264.568 135.572 264.903 135.931C265.238 136.289 265.704 136.468 266.3 136.468C266.882 136.468 267.338 136.295 267.667 135.949C268.002 135.604 268.169 135.125 268.169 134.515ZM267.89 128.524C267.89 127.99 267.75 127.562 267.472 127.241C267.192 126.914 266.798 126.751 266.289 126.751C265.787 126.751 265.397 126.908 265.117 127.222C264.837 127.537 264.698 127.971 264.698 128.524C264.698 129.072 264.837 129.512 265.117 129.845C265.397 130.179 265.79 130.345 266.3 130.345C266.808 130.345 267.198 130.179 267.472 129.845C267.75 129.512 267.89 129.072 267.89 128.524Z" fill="white"/>
<path d="M281.905 126.269L276.666 138.478H273.827L279.076 126.949H272.339V124.741H281.905V126.269Z" fill="white"/>
<path d="M286.372 130.402H287.805C288.488 130.402 288.993 130.229 289.322 129.883C289.65 129.537 289.815 129.078 289.815 128.506C289.815 127.952 289.65 127.521 289.322 127.213C288.999 126.905 288.552 126.751 287.981 126.751C287.467 126.751 287.036 126.895 286.688 127.185C286.341 127.468 286.167 127.839 286.167 128.298H283.478C283.478 127.581 283.667 126.939 284.045 126.373C284.431 125.801 284.964 125.354 285.647 125.034C286.334 124.713 287.091 124.552 287.917 124.552C289.35 124.552 290.473 124.901 291.285 125.6C292.098 126.291 292.504 127.248 292.504 128.468C292.504 129.097 292.315 129.675 291.936 130.204C291.558 130.732 291.063 131.138 290.448 131.421C291.211 131.698 291.779 132.113 292.151 132.666C292.529 133.22 292.718 133.874 292.718 134.629C292.718 135.849 292.279 136.827 291.398 137.563C290.522 138.299 289.362 138.667 287.917 138.667C286.564 138.667 285.457 138.305 284.594 137.582C283.739 136.858 283.311 135.902 283.311 134.713H285.999C285.999 135.229 286.188 135.651 286.567 135.978C286.951 136.305 287.423 136.468 287.981 136.468C288.62 136.468 289.12 136.298 289.48 135.959C289.847 135.613 290.029 135.157 290.029 134.591C290.029 133.22 289.284 132.534 287.796 132.534H286.372V130.402Z" fill="white"/>
</g>
<defs>
<clipPath id="clip0">
<rect width="300" height="143" fill="white"/>
</clipPath>
</defs>
</svg>
