<svg width="464" height="343" viewBox="0 0 464 343" fill="none" xmlns="http://www.w3.org/2000/svg">
<path d="M291.601 131.063C286.139 131.071 280.903 133.257 277.043 137.141C273.183 141.025 271.016 146.29 271.016 151.78V165.581C271.016 188.949 298.482 194.394 298.482 210.443V231.131C298.543 232.075 298.41 233.021 298.093 233.911C297.775 234.801 297.279 235.617 296.636 236.307C295.992 236.997 295.214 237.547 294.351 237.922C293.488 238.298 292.556 238.492 291.615 238.492C290.674 238.492 289.743 238.298 288.88 237.922C288.017 237.547 287.239 236.997 286.595 236.307C285.952 235.617 285.456 234.801 285.138 233.911C284.821 233.021 284.688 232.075 284.749 231.131V202.548L271.016 204.565V231.189C270.912 233.972 271.369 236.748 272.357 239.351C273.346 241.953 274.847 244.328 276.77 246.334C278.693 248.34 280.999 249.936 283.55 251.026C286.1 252.116 288.844 252.678 291.615 252.678C294.387 252.678 297.131 252.116 299.681 251.026C302.232 249.936 304.538 248.34 306.461 246.334C308.384 244.328 309.885 241.953 310.874 239.351C311.862 236.748 312.319 233.972 312.215 231.189V210.328C312.215 185.462 284.749 181.832 284.749 165.466V151.78C284.688 150.836 284.821 149.89 285.138 149C285.456 148.109 285.952 147.294 286.595 146.604C287.239 145.914 288.017 145.364 288.88 144.988C289.743 144.612 290.674 144.418 291.615 144.418C292.556 144.418 293.488 144.612 294.351 144.988C295.214 145.364 295.992 145.914 296.636 146.604C297.279 147.294 297.775 148.109 298.093 149C298.41 149.89 298.543 150.836 298.482 151.78V171.69L312.215 170.508V151.78C312.215 149.059 311.682 146.365 310.646 143.852C309.61 141.338 308.092 139.054 306.178 137.131C304.263 135.207 301.991 133.681 299.49 132.64C296.989 131.599 294.308 131.063 291.601 131.063Z" fill="white"/>
<path d="M171.442 131.063C165.977 131.071 160.739 133.256 156.874 137.139C153.01 141.023 150.836 146.288 150.828 151.78V262.192C151.027 267.549 153.284 272.62 157.126 276.339C160.967 280.058 166.094 282.136 171.428 282.136C176.762 282.136 181.889 280.058 185.73 276.339C189.572 272.62 191.829 267.549 192.028 262.192V192.406L171.442 194.538V207.159L178.295 206.208V262.192C178.182 263.945 177.409 265.589 176.134 266.791C174.859 267.992 173.176 268.661 171.428 268.661C169.68 268.661 167.997 267.992 166.722 266.791C165.447 265.589 164.674 263.945 164.561 262.192V151.78C164.501 150.836 164.633 149.89 164.951 149C165.268 148.109 165.764 147.294 166.408 146.604C167.052 145.914 167.829 145.364 168.693 144.988C169.556 144.612 170.487 144.418 171.428 144.418C172.369 144.418 173.3 144.612 174.164 144.988C175.027 145.364 175.805 145.914 176.448 146.604C177.092 147.294 177.588 148.109 177.905 149C178.223 149.89 178.355 150.836 178.295 151.78V181.861L192.028 180.65V151.837C192.035 149.114 191.509 146.417 190.478 143.898C189.447 141.38 187.933 139.091 186.021 137.161C184.109 135.232 181.837 133.7 179.336 132.654C176.834 131.607 174.152 131.067 171.442 131.063Z" fill="white"/>
<path d="M205.79 272.103L219.523 268.674V133.137H205.79V272.103Z" fill="white"/>
<path d="M123.362 293.252L137.095 289.766V133.137H123.362V293.252Z" fill="white"/>
<path d="M240.109 133.137H226.376V146.939H240.109V263.373L253.842 259.973V146.939H267.576V133.137H253.842H240.109Z" fill="white"/>
<path d="M75.0804 133.137L68.4288 147.544L95.8954 146.939V284.954C95.9561 285.898 95.8235 286.844 95.5059 287.734C95.1883 288.624 94.6924 289.44 94.0488 290.129C93.4052 290.819 92.6277 291.369 91.7642 291.745C90.9008 292.121 89.9697 292.315 89.0287 292.315C88.0877 292.315 87.1567 292.121 86.2932 291.745C85.4298 291.369 84.6522 290.819 84.0087 290.129C83.3651 289.44 82.8692 288.624 82.5515 287.734C82.2339 286.844 82.1014 285.898 82.1621 284.954V232.687L68.5722 234.733V284.954C68.4688 287.738 68.9251 290.514 69.9138 293.116C70.9025 295.718 72.4033 298.094 74.3264 300.1C76.2494 302.106 78.5553 303.701 81.1061 304.791C83.6569 305.881 86.4003 306.443 89.1721 306.443C91.9439 306.443 94.6872 305.881 97.238 304.791C99.7889 303.701 102.095 302.106 104.018 300.1C105.941 298.094 107.442 295.718 108.43 293.116C109.419 290.514 109.875 287.738 109.772 284.954V133.137H75.3671H75.0804Z" fill="white"/>
<path d="M462.507 220.931C461.182 216.721 458.548 213.05 454.992 210.457C451.436 207.864 447.146 206.485 442.753 206.524H353.874V124.522C353.874 119.486 351.883 114.657 348.34 111.096C344.797 107.535 339.991 105.534 334.98 105.534H50.0217L58.623 91.7039H320.014C320.767 91.6846 321.503 91.4706 322.15 91.0824C322.798 90.6943 323.334 90.145 323.709 89.4877C324.084 88.8304 324.283 88.0872 324.289 87.3297C324.294 86.5723 324.106 85.8261 323.741 85.1633L314.652 68.711C313.299 66.2497 312.59 63.4839 312.59 60.6721C312.59 57.8603 313.299 55.0945 314.652 52.6332L323.741 36.1809C324.117 35.5087 324.311 34.7491 324.304 33.978C324.297 33.2068 324.088 32.451 323.699 31.7862C323.311 31.1213 322.755 30.5706 322.088 30.189C321.421 29.8074 320.667 29.6082 319.899 29.6115H58.709L41.5065 2.0949C41.0966 1.4525 40.5325 0.923974 39.8662 0.557912C39.1999 0.19185 38.4527 0 37.6933 0C36.934 0 36.1868 0.19185 35.5204 0.557912C34.8541 0.923974 34.2901 1.4525 33.8801 2.0949L2.34235 52.518C0.812029 54.9596 0 57.7864 0 60.6721C0 63.5577 0.812029 66.3846 2.34235 68.8262L31.0131 114.265V274.61V324.889C31.0045 329.591 32.8318 334.108 36.1022 337.47C39.3725 340.832 43.8249 342.77 48.5022 342.868C50.0603 342.866 51.6116 342.662 53.1182 342.263L298.797 276.915V319.242C298.794 322.473 299.544 325.66 300.986 328.548C302.429 331.435 304.525 333.943 307.106 335.87C309.687 337.797 312.681 339.09 315.849 339.645C319.016 340.2 322.269 340.001 325.347 339.065C329.353 337.792 333.115 335.843 336.471 333.302L455.397 244.154C458.875 241.538 461.437 237.88 462.715 233.706C463.993 229.533 463.92 225.06 462.507 220.931ZM278.671 47.5333H285.523C289.537 47.5333 291.773 50.4146 291.773 55.601C291.773 60.7873 289.594 63.5822 285.724 63.5822H282.857V72.716H278.671V47.5333ZM254.157 55.0823C254.157 50.0688 256.537 47.1875 261.096 47.1875C265.654 47.1875 268.091 50.0688 268.091 55.0535V65.1958C268.091 70.1804 265.711 73.0906 261.096 73.0906C256.48 73.0906 254.157 70.2093 254.157 65.1958V55.0823ZM230.045 47.5333H234.346V57.762H239.277V47.5333H243.463V72.716H239.162V61.7382H234.346V72.716H230.045V47.5333ZM207.481 53.7857C207.401 52.943 207.498 52.0926 207.766 51.2901C208.034 50.4876 208.468 49.751 209.039 49.1283C209.61 48.5057 210.305 48.011 211.079 47.6766C211.853 47.3422 212.688 47.1755 213.531 47.1875C215.089 47.175 216.597 47.7371 217.77 48.7673C218.943 49.7975 219.699 51.2242 219.896 52.7773L216.771 53.9586C216.283 51.7688 215.366 50.9044 213.904 50.9044C212.441 50.9044 211.667 51.7976 211.667 53.4688C211.667 58.0213 220.01 58.5111 220.01 66.0313C220.136 66.9266 220.066 67.8387 219.804 68.7036C219.542 69.5685 219.094 70.3653 218.493 71.0381C217.892 71.7108 217.152 72.2431 216.324 72.5977C215.497 72.9523 214.602 73.1205 213.703 73.0906C212.062 73.0819 210.484 72.4559 209.279 71.3359C208.074 70.216 207.331 68.6833 207.195 67.0398L210.606 65.9737C211.065 68.4805 212.298 69.4025 213.473 69.4025C214.649 69.4025 215.796 68.5381 215.796 66.694C215.968 61.3636 207.481 61.1907 207.481 53.7857ZM185.061 47.5333H191.626C195.984 47.5333 197.905 50.0977 197.905 54.7366C197.905 58.3382 196.844 60.4992 194.837 61.3348L198.937 72.716H194.407L191.082 62.4009H189.361V72.716H185.061V47.5333ZM163.414 47.5333H174.653V51.5383H167.715V57.9348H173.076V61.4789H167.715V68.7974H174.969V72.716H163.5L163.414 47.5333ZM139.847 47.5333H145.983C146.867 47.419 147.766 47.5135 148.607 47.8093C149.449 48.1051 150.21 48.5941 150.831 49.2375C151.452 49.8808 151.915 50.6607 152.183 51.5153C152.451 52.3699 152.517 53.2755 152.376 54.1603C152.376 57.0416 151.602 58.7128 149.71 59.5196C152.061 60.2111 153.179 62.4009 153.179 65.2822C153.179 69.8635 151.717 72.5719 146.757 72.5719H139.876L139.847 47.5333ZM116.366 47.5333H123.046C127.404 47.5333 129.296 50.0977 129.296 54.7366C129.296 58.3382 128.264 60.4992 126.257 61.3348L130.328 72.716H125.684L122.387 62.4009H120.638V72.716H116.366V47.5333ZM96.1529 47.5333H101.17L106.904 72.716H102.403L101.342 66.9534H95.8949L94.8627 72.716H90.5621L96.1529 47.5333ZM68.9444 47.5333H75.0799C75.9643 47.419 76.863 47.5135 77.7046 47.8093C78.5463 48.1051 79.3077 48.5941 79.9284 49.2375C80.549 49.8808 81.0119 50.6607 81.2801 51.5153C81.5483 52.3699 81.6145 53.2755 81.4735 54.1603C81.4735 57.0416 80.6707 58.7128 78.8071 59.5196C81.1581 60.2111 82.2763 62.4009 82.2763 65.2822C82.2763 69.8635 80.8141 72.5719 75.8254 72.5719H68.9444V47.5333ZM34.7689 79.6023C34.7689 79.0325 34.9371 78.4754 35.2521 78.0016C35.5672 77.5277 36.0149 77.1584 36.5388 76.9404C37.0627 76.7223 37.6392 76.6652 38.1953 76.7764C38.7515 76.8876 39.2624 77.162 39.6633 77.565C40.0643 77.9679 40.3373 78.4813 40.448 79.0402C40.5586 79.5992 40.5018 80.1785 40.2848 80.705C40.0678 81.2315 39.7003 81.6815 39.2289 81.9981C38.7574 82.3147 38.203 82.4837 37.636 82.4837C36.8756 82.4837 36.1463 82.1801 35.6087 81.6398C35.071 81.0994 34.7689 80.3665 34.7689 79.6023ZM33.7654 59.7501C32.2172 56.0044 29.8949 54.7942 28.0313 56.8688C26.1677 58.9433 27.7159 64.7059 30.5543 65.167C30.2103 66.4347 25.1356 65.167 23.0139 58.4535C20.8923 51.74 29.4935 45.6316 34.0235 52.5468C33.1634 47.9079 33.02 41.6554 37.6073 38.1402C42.1946 41.6842 42.0226 47.9367 41.1912 52.5468C45.6351 45.6028 54.2363 51.8553 52.2007 58.4247C50.1651 64.9941 45.0044 66.4059 44.6603 65.1381C47.5274 64.6771 49.0469 58.8857 47.1833 56.8399C45.3197 54.7942 42.9974 56.0044 41.4492 59.7213C39.901 63.4382 39.2702 70.2957 45.033 71.016C44.8002 71.4167 44.5416 71.8017 44.2589 72.1685C43.2268 73.3787 41.1625 70.8431 37.722 70.8431C34.2815 70.8431 31.9879 73.4363 31.0131 72.2262C30.6946 71.8531 30.4159 71.4475 30.1816 71.016C35.9444 70.3245 35.3423 63.3805 33.7654 59.7501ZM49.5057 328.836C48.9019 328.995 48.2699 329.013 47.6583 328.887C47.0468 328.762 46.4723 328.496 45.979 328.112C45.4857 327.728 45.087 327.235 44.8136 326.671C44.5402 326.107 44.3995 325.487 44.4023 324.86V125.761C44.4023 124.057 45.0759 122.423 46.2749 121.218C47.4739 120.013 49.1002 119.336 50.7958 119.336H334.837C336.203 119.343 337.511 119.892 338.477 120.863C339.444 121.834 339.99 123.149 339.997 124.522V254.441L339.137 254.181C336.073 253.468 332.879 253.537 329.848 254.383L49.5057 328.836ZM330.794 268.329L333.432 267.608C334.288 267.392 335.184 267.392 336.041 267.608C337.037 267.852 337.939 268.388 338.633 269.147C339.327 269.906 339.782 270.854 339.94 271.873C339.954 272.122 339.954 272.372 339.94 272.622C339.949 273.928 339.456 275.187 338.564 276.137L312.473 298.035V273.256L330.794 268.329ZM447.025 233.378L329.074 321.806L324.2 325.091C322.292 326.253 320.01 326.625 317.835 326.128C316.556 325.846 315.384 325.201 314.458 324.271C313.533 323.34 312.892 322.162 312.611 320.877C312.331 319.592 312.422 318.253 312.876 317.018C313.329 315.784 314.124 314.705 315.168 313.911L343.237 290.371L347.624 286.654L348.054 286.279C349.825 284.515 351.23 282.415 352.185 280.099C353.14 277.784 353.626 275.301 353.616 272.795V220.47H442.638C444.153 220.43 445.641 220.878 446.884 221.747C448.128 222.617 449.063 223.863 449.553 225.304C450.042 226.745 450.061 228.305 449.607 229.758C449.152 231.21 448.247 232.479 447.025 233.378Z" fill="white"/>
<path d="M68.4578 209.002H71.7836V206.179H85.9469V202.606H71.7836V199.811H68.4578V209.002Z" fill="white"/>
<path d="M68.4578 191.081V194.653H85.9469V191.081H78.6072V188.401H85.9469V184.828H68.4578V188.401H75.3101V191.081H68.4578Z" fill="white"/>
<path d="M68.4578 170.738V178.806H85.9469V170.594H82.7358V175.262H78.3492V171.891H75.4821V175.262H71.7549V170.738H68.4578Z" fill="white"/>
<path d="M396.594 242.714L412.993 229.604L412.449 228.912C412.155 228.541 411.792 228.231 411.38 228.001C410.967 227.77 410.513 227.624 410.045 227.571C409.576 227.517 409.101 227.557 408.648 227.689C408.194 227.82 407.771 228.04 407.403 228.336L395.418 238.017L389.483 242.771H386.186C386.336 242.227 386.414 241.665 386.416 241.1C386.408 240.291 386.242 239.49 385.927 238.745C385.611 238 385.153 237.324 384.578 236.757C384.003 236.19 383.322 235.742 382.575 235.439C381.828 235.136 381.028 234.984 380.223 234.992H371.306C369.748 235.099 368.288 235.797 367.221 236.944C366.155 238.091 365.562 239.602 365.562 241.172C365.562 242.742 366.155 244.254 367.221 245.401C368.288 246.548 369.748 247.246 371.306 247.353H380.251H383.721L380.853 249.543L374.46 254.671L363.766 263.315L364.31 264.007C364.601 264.377 364.962 264.687 365.372 264.916C365.782 265.146 366.233 265.292 366.7 265.346C367.166 265.399 367.639 265.359 368.09 265.229C368.541 265.098 368.962 264.878 369.328 264.583L372.052 262.393C372.272 262.922 372.551 263.425 372.883 263.891C373.901 265.158 375.374 265.971 376.984 266.154C378.593 266.337 380.21 265.876 381.484 264.871L388.595 259.31C389.861 258.292 390.675 256.81 390.857 255.19C391.04 253.571 390.577 251.944 389.569 250.666C389.224 250.217 388.807 249.828 388.337 249.514L390.917 247.439L414.025 247.237C414.495 247.234 414.959 247.137 415.391 246.952C415.822 246.767 416.213 246.498 416.541 246.161C416.869 245.823 417.127 245.424 417.301 244.985C417.474 244.547 417.56 244.079 417.552 243.607V242.714H396.594ZM371.22 242.944C370.813 242.891 370.439 242.69 370.168 242.38C369.898 242.07 369.748 241.671 369.748 241.259C369.748 240.846 369.898 240.448 370.168 240.137C370.439 239.827 370.813 239.627 371.22 239.573H380.137C380.357 239.569 380.577 239.61 380.782 239.692C380.987 239.774 381.174 239.897 381.331 240.052C381.489 240.208 381.614 240.393 381.699 240.598C381.784 240.803 381.828 241.022 381.828 241.244C381.832 241.466 381.792 241.687 381.71 241.893C381.628 242.099 381.506 242.286 381.351 242.445C381.197 242.603 381.012 242.729 380.808 242.814C380.605 242.9 380.386 242.944 380.165 242.944H371.22ZM385.813 255.651L378.818 261.241C378.47 261.515 378.029 261.641 377.59 261.593C377.15 261.544 376.747 261.325 376.467 260.981C376.33 260.808 376.228 260.609 376.169 260.396C376.109 260.183 376.092 259.96 376.118 259.74C376.145 259.52 376.215 259.308 376.324 259.115C376.433 258.923 376.579 258.754 376.754 258.619L383.721 252.856C384.072 252.585 384.515 252.464 384.955 252.518C385.394 252.571 385.795 252.796 386.072 253.144C386.234 253.319 386.357 253.526 386.432 253.753C386.508 253.979 386.535 254.219 386.51 254.457C386.486 254.694 386.411 254.924 386.291 255.13C386.17 255.336 386.008 255.513 385.813 255.651Z" fill="white"/>
<path d="M148.392 54.7371C148.392 52.288 147.79 51.5388 146.127 51.5388H144.034V58.2235H146.127C147.905 58.137 148.392 57.0998 148.392 54.7371Z" fill="white"/>
<path d="M148.851 65.1954C148.851 62.3141 148.191 61.5649 146.528 61.5649H143.977V68.9123H146.5C148.249 68.9123 148.851 68.1055 148.851 65.1954Z" fill="white"/>
<path d="M124.939 55.0821C124.939 52.2008 124.308 51.394 122.674 51.394H120.638V58.8855H122.674C124.422 58.8855 124.939 57.8482 124.939 55.0821Z" fill="white"/>
<path d="M98.6476 51.9419H98.5903L96.4973 63.6689H100.741L98.6476 51.9419Z" fill="white"/>
<path d="M78.0039 65.1954C78.0039 62.3141 77.3445 61.5649 75.6816 61.5649H73.1299V68.9123H75.6529C77.3445 68.9123 78.0039 68.1055 78.0039 65.1954Z" fill="white"/>
<path d="M77.4878 54.7371C77.4878 52.288 76.9144 51.5388 75.2515 51.5388H73.1299V58.2235H75.2515C77.0004 58.137 77.4878 57.0998 77.4878 54.7371Z" fill="white"/>
<path d="M193.633 55.0821C193.633 52.2008 193.031 51.394 191.396 51.394H189.361V58.8855H191.396C193.117 58.8855 193.633 57.8482 193.633 55.0821Z" fill="white"/>
<path d="M287.474 55.6296C287.474 52.3737 286.872 51.394 285.381 51.394H282.944V60.038H285.381C286.872 60.038 287.474 58.8567 287.474 55.6296Z" fill="white"/>
<path d="M261.097 69.3161C262.96 69.3161 263.791 68.2212 263.791 65.1958V55.0824C263.791 52.2011 262.96 51.0486 261.125 51.0486C259.29 51.0486 258.43 52.0859 258.43 55.0536V65.1958C258.43 68.2212 259.262 69.3161 261.097 69.3161Z" fill="white"/>
</svg>
