<svg width="94" height="75" viewBox="0 0 94 75" fill="none" xmlns="http://www.w3.org/2000/svg">
<path d="M12.3973 8.68146H3.59644V19.2091H12.3973V8.68146Z" fill="#F28E00"/>
<path d="M67.0691 56.2689L67.6039 56.123C67.7775 56.0792 67.9592 56.0792 68.1328 56.123C68.3349 56.1724 68.5178 56.2809 68.6585 56.4347C68.7992 56.5885 68.8914 56.7807 68.9234 56.9871C68.9263 57.0377 68.9263 57.0884 68.9234 57.1389V57.1389C68.9252 57.4036 68.8253 57.6588 68.6444 57.8513L63.3546 62.2889V57.2499L67.0691 56.2689Z" fill="#F28E00"/>
<path d="M90.6348 49.1688L66.7201 67.0885L65.7319 67.7542C65.3451 67.9897 64.8824 68.065 64.4414 67.9644C64.1821 67.9072 63.9445 67.7766 63.7568 67.588C63.5691 67.3994 63.4391 67.1608 63.3822 66.9003C63.3254 66.6398 63.344 66.3684 63.4359 66.1183C63.5278 65.8681 63.6891 65.6496 63.9008 65.4886L69.5917 60.7182L70.4811 59.965L70.5683 59.8891C70.9275 59.5316 71.2122 59.1059 71.4058 58.6367C71.5994 58.1676 71.6981 57.6643 71.696 57.1565V57.1565V46.5529H89.7454C90.0525 46.5449 90.3541 46.6356 90.6063 46.8118C90.8585 46.988 91.048 47.2405 91.1473 47.5325C91.2466 47.8245 91.2504 48.1407 91.1582 48.4351C91.066 48.7294 90.8827 48.9865 90.6348 49.1688Z" fill="#F28E00"/>
<path d="M10.0374 68.5132C9.915 68.5454 9.78685 68.5489 9.66287 68.5235C9.53888 68.498 9.42238 68.4443 9.32237 68.3664C9.22236 68.2885 9.14152 68.1886 9.08609 68.0743C9.03066 67.96 9.00212 67.8345 9.00269 67.7074V27.3603C9.00269 27.0149 9.13927 26.6837 9.38237 26.4395C9.62548 26.1954 9.9552 26.0582 10.299 26.0582H67.8885C68.1656 26.0597 68.4308 26.1709 68.6267 26.3677C68.8226 26.5645 68.9334 26.8309 68.9349 27.1092V53.437L68.7605 53.3845C68.1391 53.2399 67.4916 53.2539 66.8771 53.4253L10.0374 68.5132Z" fill="#F28E00"/>
<path d="M60.9362 9.77917H12.136V17.8136H60.9362V9.77917Z" fill="white"/>
<path d="M59.1224 28.4347C58.0149 28.4362 56.9533 28.8792 56.1708 29.6664C55.3882 30.4535 54.9486 31.5205 54.9486 32.6329V35.4298C54.9486 40.1651 60.5175 41.2687 60.5175 44.521V48.7134C60.5298 48.9046 60.503 49.0964 60.4386 49.2767C60.3742 49.4571 60.2736 49.6224 60.1431 49.7622C60.0126 49.902 59.855 50.0134 59.6799 50.0896C59.5049 50.1658 59.3161 50.2051 59.1253 50.2051C58.9345 50.2051 58.7457 50.1658 58.5707 50.0896C58.3956 50.0134 58.238 49.902 58.1075 49.7622C57.977 49.6224 57.8764 49.4571 57.812 49.2767C57.7476 49.0964 57.7208 48.9046 57.7331 48.7134V42.9211L54.9486 43.3298V48.725C54.9277 49.2891 55.0202 49.8517 55.2207 50.3791C55.4211 50.9064 55.7254 51.3878 56.1153 51.7943C56.5052 52.2008 56.9727 52.5242 57.4899 52.7451C58.0071 52.9659 58.5633 53.0798 59.1253 53.0798C59.6873 53.0798 60.2435 52.9659 60.7607 52.7451C61.2779 52.5242 61.7454 52.2008 62.1353 51.7943C62.5252 51.3878 62.8295 50.9064 63.0299 50.3791C63.2304 49.8517 63.3229 49.2891 63.302 48.725V44.4976C63.302 39.4586 57.7331 38.7229 57.7331 35.4064V32.6329C57.7208 32.4417 57.7476 32.2499 57.812 32.0695C57.8764 31.8891 57.977 31.7239 58.1075 31.5841C58.238 31.4443 58.3956 31.3328 58.5707 31.2566C58.7457 31.1804 58.9345 31.1411 59.1253 31.1411C59.3161 31.1411 59.5049 31.1804 59.6799 31.2566C59.855 31.3328 60.0126 31.4443 60.1431 31.5841C60.2736 31.7239 60.3742 31.8891 60.4386 32.0695C60.503 32.2499 60.5298 32.4417 60.5175 32.6329V36.6676L63.302 36.4282V32.6329C63.302 32.0816 63.1938 31.5357 62.9838 31.0263C62.7738 30.517 62.4659 30.0542 62.0778 29.6643C61.6897 29.2745 61.2289 28.9652 60.7218 28.7543C60.2148 28.5433 59.6713 28.4347 59.1224 28.4347V28.4347Z" fill="white"/>
<path d="M34.7603 28.4347C33.6523 28.4362 32.5901 28.879 31.8066 29.666C31.0231 30.453 30.5823 31.5199 30.5807 32.6329V55.0078C30.6211 56.0933 31.0788 57.1209 31.8576 57.8746C32.6365 58.6283 33.6759 59.0494 34.7574 59.0494C35.8389 59.0494 36.8783 58.6283 37.6572 57.8746C38.436 57.1209 38.8937 56.0933 38.9341 55.0078V40.8658L34.7603 41.2979V43.8554L36.1496 43.6627V55.0078C36.1268 55.363 35.9701 55.6962 35.7115 55.9397C35.453 56.1832 35.1118 56.3187 34.7574 56.3187C34.403 56.3187 34.0618 56.1832 33.8033 55.9397C33.5447 55.6962 33.3881 55.363 33.3652 55.0078V32.6329C33.3529 32.4417 33.3797 32.2499 33.4441 32.0695C33.5085 31.8891 33.6091 31.7239 33.7396 31.5841C33.8701 31.4443 34.0277 31.3328 34.2028 31.2566C34.3778 31.1804 34.5666 31.1411 34.7574 31.1411C34.9482 31.1411 35.137 31.1804 35.312 31.2566C35.4871 31.3328 35.6447 31.4443 35.7752 31.5841C35.9057 31.7239 36.0063 31.8891 36.0707 32.0695C36.1351 32.2499 36.1619 32.4417 36.1496 32.6329V38.7288L38.9341 38.4835V32.6446C38.9356 32.0928 38.8288 31.5461 38.6198 31.0358C38.4108 30.5254 38.1037 30.0615 37.7161 29.6705C37.3284 29.2795 36.8678 28.9691 36.3607 28.7571C35.8535 28.545 35.3097 28.4355 34.7603 28.4347V28.4347Z" fill="white"/>
<path d="M41.7242 57.0163L44.5086 56.3215V28.855H41.7242V57.0163Z" fill="white"/>
<path d="M25.0119 61.3021L27.7963 60.5956V28.855H25.0119V61.3021Z" fill="white"/>
<path d="M48.6824 28.855H45.8979V31.6519H48.6824V55.2471L51.4668 54.5581V31.6519H54.2513V28.855H51.4668H48.6824Z" fill="white"/>
<path d="M15.2225 28.855L13.8739 31.7745L19.4428 31.6519V59.6205C19.4551 59.8117 19.4282 60.0035 19.3638 60.1839C19.2994 60.3643 19.1989 60.5295 19.0684 60.6693C18.9379 60.8091 18.7802 60.9206 18.6052 60.9967C18.4301 61.0729 18.2413 61.1122 18.0506 61.1122C17.8598 61.1122 17.671 61.0729 17.4959 60.9967C17.3209 60.9206 17.1632 60.8091 17.0327 60.6693C16.9022 60.5295 16.8017 60.3643 16.7373 60.1839C16.6729 60.0035 16.646 59.8117 16.6583 59.6205V49.0286L13.903 49.4432V59.6205C13.882 60.1846 13.9745 60.7471 14.175 61.2745C14.3754 61.8019 14.6797 62.2832 15.0696 62.6897C15.4595 63.0963 15.9271 63.4196 16.4442 63.6405C16.9614 63.8614 17.5176 63.9752 18.0796 63.9752C18.6416 63.9752 19.1978 63.8614 19.715 63.6405C20.2322 63.4196 20.6997 63.0963 21.0896 62.6897C21.4795 62.2832 21.7838 61.8019 21.9842 61.2745C22.1847 60.7471 22.2772 60.1846 22.2563 59.6205V28.855H15.2807H15.2225Z" fill="white"/>
<path d="M93.7738 46.6463C93.5051 45.7933 92.9711 45.0493 92.2501 44.5238C91.5292 43.9983 90.6594 43.7189 89.7687 43.7269H71.7483V27.1092C71.7483 26.0887 71.3447 25.11 70.6263 24.3884C69.9079 23.6668 68.9335 23.2614 67.9175 23.2614H10.142L11.8859 20.4587H64.8831C65.0359 20.4548 65.1851 20.4114 65.3163 20.3327C65.4476 20.2541 65.5564 20.1428 65.6323 20.0096C65.7083 19.8764 65.7488 19.7257 65.7499 19.5722C65.751 19.4187 65.7128 19.2675 65.6388 19.1332L63.7961 15.7992C63.5218 15.3004 63.3779 14.7399 63.3779 14.1701C63.3779 13.6003 63.5218 13.0398 63.7961 12.541L65.6388 9.20701C65.7151 9.07079 65.7545 8.91686 65.753 8.76058C65.7515 8.60431 65.7092 8.45116 65.6304 8.31642C65.5516 8.18168 65.4389 8.07008 65.3037 7.99275C65.1685 7.91542 65.0155 7.87507 64.8599 7.87572H11.9033L8.41549 2.29953C8.33238 2.16935 8.21802 2.06224 8.08292 1.98806C7.94782 1.91388 7.79633 1.875 7.64236 1.875C7.4884 1.875 7.3369 1.91388 7.20181 1.98806C7.06671 2.06224 6.95235 2.16935 6.86923 2.29953L0.474914 12.5177C0.16464 13.0125 0 13.5853 0 14.1701C0 14.7549 0.16464 15.3277 0.474914 15.8225L6.28793 25.0306V57.5243V67.7133C6.2862 68.666 6.65669 69.5815 7.31975 70.2628C7.98282 70.9441 8.88554 71.3369 9.83387 71.3568C10.1498 71.3562 10.4643 71.315 10.7698 71.2342L60.5815 57.9914V66.5688C60.5808 67.2237 60.7328 67.8695 61.0253 68.4547C61.3179 69.0399 61.7428 69.5481 62.2661 69.9386C62.7894 70.3292 63.3964 70.5911 64.0387 70.7036C64.6809 70.816 65.3404 70.7757 65.9644 70.586C66.7767 70.3281 67.5394 69.9332 68.2198 69.4182L92.3322 51.3525C93.0374 50.8223 93.5569 50.0809 93.816 49.2352C94.075 48.3895 94.0603 47.4831 93.7738 46.6463ZM56.5008 11.5076H57.8901C58.7039 11.5076 59.1573 12.0914 59.1573 13.1425C59.1573 14.1935 58.7155 14.7598 57.9308 14.7598H57.3495V16.6108H56.5008V11.5076ZM51.5306 13.0374C51.5306 12.0214 52.0131 11.4375 52.9374 11.4375C53.8617 11.4375 54.3558 12.0214 54.3558 13.0315V15.0868C54.3558 16.097 53.8733 16.6867 52.9374 16.6867C52.0015 16.6867 51.5306 16.1028 51.5306 15.0868V13.0374ZM46.6419 11.5076H47.5138V13.5804H48.5137V11.5076H49.3624V16.6108H48.4904V14.3862H47.5138V16.6108H46.6419V11.5076ZM42.067 12.7746C42.0507 12.6038 42.0704 12.4315 42.1248 12.2689C42.1792 12.1062 42.2672 11.957 42.3829 11.8308C42.4986 11.7046 42.6396 11.6044 42.7965 11.5366C42.9534 11.4688 43.1228 11.4351 43.2936 11.4375C43.6094 11.435 43.9152 11.5489 44.1531 11.7576C44.3909 11.9664 44.5443 12.2555 44.5841 12.5702L43.9505 12.8096C43.8516 12.3659 43.6656 12.1907 43.3692 12.1907C43.0727 12.1907 42.9157 12.3717 42.9157 12.7104C42.9157 13.6329 44.6073 13.7322 44.6073 15.2562C44.6329 15.4376 44.6186 15.6224 44.5655 15.7977C44.5123 15.973 44.4216 16.1344 44.2998 16.2708C44.1779 16.4071 44.0278 16.515 43.86 16.5868C43.6922 16.6587 43.5108 16.6928 43.3285 16.6867C42.9958 16.6849 42.6758 16.5581 42.4315 16.3311C42.1873 16.1042 42.0365 15.7936 42.0089 15.4605L42.7007 15.2445C42.7937 15.7525 43.0436 15.9393 43.282 15.9393C43.5203 15.9393 43.7528 15.7641 43.7528 15.3905C43.7877 14.3102 42.067 14.2752 42.067 12.7746V12.7746ZM37.5213 11.5076H38.8524C39.736 11.5076 40.1255 12.0272 40.1255 12.9673C40.1255 13.6972 39.9104 14.1351 39.5035 14.3044L40.3348 16.6108H39.4163L38.742 14.5204H38.3932V16.6108H37.5213V11.5076ZM33.1324 11.5076H35.4111V12.3192H34.0044V13.6154H35.0914V14.3336H34.0044V15.8167H35.4751V16.6108H33.1499L33.1324 11.5076ZM28.3541 11.5076H29.5981C29.7774 11.4844 29.9596 11.5035 30.1303 11.5635C30.3009 11.6234 30.4553 11.7225 30.5811 11.8529C30.707 11.9833 30.8008 12.1413 30.8552 12.3145C30.9096 12.4877 30.923 12.6712 30.8944 12.8505C30.8944 13.4344 30.7375 13.7731 30.3538 13.9366C30.8305 14.0767 31.0572 14.5204 31.0572 15.1043C31.0572 16.0327 30.7607 16.5816 29.7551 16.5816H28.36L28.3541 11.5076ZM23.5933 11.5076H24.9477C25.8313 11.5076 26.215 12.0272 26.215 12.9673C26.215 13.6972 26.0057 14.1351 25.5988 14.3044L26.4242 16.6108H25.4825L24.814 14.5204H24.4594V16.6108H23.5933V11.5076ZM19.4951 11.5076H20.5124L21.675 16.6108H20.7623L20.5473 15.443H19.4428L19.2335 16.6108H18.3616L19.4951 11.5076ZM13.9785 11.5076H15.2225C15.4018 11.4844 15.5841 11.5035 15.7547 11.5635C15.9253 11.6234 16.0797 11.7225 16.2056 11.8529C16.3314 11.9833 16.4252 12.1413 16.4796 12.3145C16.534 12.4877 16.5474 12.6712 16.5188 12.8505C16.5188 13.4344 16.3561 13.7731 15.9782 13.9366C16.4549 14.0767 16.6816 14.5204 16.6816 15.1043C16.6816 16.0327 16.3851 16.5816 15.3737 16.5816H13.9785V11.5076ZM7.04944 18.0063C7.04944 17.8908 7.08353 17.7779 7.1474 17.6819C7.21128 17.5859 7.30206 17.511 7.40828 17.4669C7.5145 17.4227 7.63138 17.4111 7.74414 17.4336C7.8569 17.4562 7.96048 17.5118 8.04178 17.5934C8.12308 17.6751 8.17844 17.7791 8.20087 17.8924C8.2233 18.0057 8.21179 18.1231 8.16779 18.2297C8.12379 18.3364 8.04929 18.4276 7.95369 18.4918C7.8581 18.556 7.74571 18.5902 7.63074 18.5902C7.47657 18.5902 7.32871 18.5287 7.21969 18.4192C7.11068 18.3097 7.04944 18.1612 7.04944 18.0063ZM6.84598 13.9833C6.53208 13.2242 6.06122 12.979 5.68338 13.3994C5.30553 13.8198 5.61943 14.9876 6.19492 15.081C6.12517 15.3379 5.09626 15.081 4.6661 13.7205C4.23594 12.36 5.97984 11.1222 6.8983 12.5235C6.72391 11.5835 6.69484 10.3164 7.62492 9.60405C8.55501 10.3222 8.52013 11.5893 8.35155 12.5235C9.25257 11.1163 10.9965 12.3834 10.5837 13.7147C10.171 15.046 9.12468 15.3321 9.05493 15.0752C9.63623 14.9817 9.94432 13.8081 9.56647 13.3935C9.18863 12.979 8.71777 13.2242 8.40387 13.9774C8.08997 14.7307 7.96208 16.1203 9.1305 16.2663C9.08329 16.3475 9.03087 16.4255 8.97354 16.4999C8.76428 16.7451 8.34574 16.2313 7.64818 16.2313C6.95061 16.2313 6.48557 16.7568 6.28793 16.5115C6.22336 16.4359 6.16686 16.3537 6.11935 16.2663C7.28777 16.1262 7.1657 14.719 6.84598 13.9833V13.9833ZM10.0373 68.5132C9.91491 68.5454 9.78676 68.549 9.66278 68.5235C9.5388 68.4981 9.4223 68.4443 9.32229 68.3664C9.22228 68.2886 9.14143 68.1886 9.086 68.0744C9.03057 67.9601 9.00204 67.8345 9.00261 67.7074V27.3603C9.00261 27.015 9.13918 26.6838 9.38229 26.4396C9.62539 26.1954 9.95511 26.0582 10.2989 26.0582H67.8885C68.1655 26.0597 68.4308 26.171 68.6267 26.3677C68.8226 26.5645 68.9333 26.831 68.9348 27.1092V53.437L68.7604 53.3845C68.1391 53.2399 67.4916 53.254 66.877 53.4254L10.0373 68.5132ZM67.0688 56.2514L67.6036 56.1054C67.7773 56.0617 67.959 56.0617 68.1326 56.1054C68.3347 56.1549 68.5176 56.2634 68.6583 56.4172C68.799 56.571 68.8912 56.7632 68.9232 56.9696C68.9261 57.0202 68.9261 57.0709 68.9232 57.1214V57.1214C68.925 57.3861 68.825 57.6413 68.6442 57.8338L63.3543 62.2714V57.2499L67.0688 56.2514ZM90.6348 49.1688L66.72 67.0885L65.7318 67.7541C65.3451 67.9897 64.8824 68.065 64.4413 67.9644C64.182 67.9072 63.9445 67.7766 63.7568 67.588C63.5691 67.3994 63.4391 67.1608 63.3822 66.9003C63.3253 66.6398 63.3439 66.3684 63.4358 66.1183C63.5277 65.8681 63.6891 65.6496 63.9007 65.4886L69.5917 60.7182L70.4811 59.965L70.5683 59.8891C70.9275 59.5316 71.2122 59.1059 71.4058 58.6367C71.5994 58.1675 71.6981 57.6643 71.696 57.1565V57.1565V46.5529H89.7454C90.0525 46.5449 90.3541 46.6356 90.6063 46.8118C90.8585 46.988 91.048 47.2405 91.1473 47.5325C91.2466 47.8245 91.2504 48.1407 91.1582 48.4351C91.066 48.7294 90.8826 48.9865 90.6348 49.1688Z" fill="#1B1C20"/>
<path d="M13.8799 44.229H14.5542V43.6568H17.4258V42.9328H14.5542V42.3664H13.8799V44.229Z" fill="white"/>
<path d="M13.8799 40.5972V41.3212H17.4258V40.5972H15.9377V40.0542H17.4258V39.3301H13.8799V40.0542H15.2692V40.5972H13.8799Z" fill="white"/>
<path d="M13.8799 36.4748V38.1097H17.4258V36.4456H16.7748V37.3915H15.8854V36.7083H15.3041V37.3915H14.5484V36.4748H13.8799Z" fill="white"/>
<path d="M80.4098 51.0606L83.7348 48.4039L83.6244 48.2637C83.565 48.1884 83.4913 48.1257 83.4077 48.079C83.324 48.0324 83.2321 48.0028 83.137 47.9919C83.0419 47.9811 82.9457 47.9892 82.8538 48.0158C82.7618 48.0424 82.676 48.087 82.6013 48.147L80.1715 50.1089L78.9682 51.0723H78.2997C78.3301 50.962 78.3458 50.8481 78.3462 50.7336C78.3447 50.5695 78.311 50.4073 78.2471 50.2563C78.1831 50.1053 78.0902 49.9684 77.9736 49.8535C77.857 49.7385 77.719 49.6478 77.5675 49.5864C77.416 49.525 77.2539 49.4942 77.0906 49.4958H75.2827C74.9667 49.5174 74.6707 49.6588 74.4546 49.8913C74.2384 50.1238 74.1181 50.4301 74.1181 50.7482C74.1181 51.0664 74.2384 51.3726 74.4546 51.6051C74.6707 51.8376 74.9667 51.979 75.2827 52.0007H77.0964H77.7998L77.2185 52.4444L75.9222 53.4838L73.7539 55.2354L73.8644 55.3756C73.9233 55.4507 73.9964 55.5134 74.0795 55.5599C74.1627 55.6065 74.2542 55.6361 74.3488 55.6469C74.4433 55.6578 74.5391 55.6497 74.6306 55.6232C74.722 55.5967 74.8074 55.5522 74.8816 55.4924L75.4339 55.0486C75.4785 55.1558 75.5351 55.2577 75.6024 55.3522C75.8088 55.6088 76.1075 55.7735 76.4339 55.8107C76.7602 55.8478 77.088 55.7545 77.3463 55.5508L78.788 54.4238C79.0448 54.2174 79.2097 53.9172 79.2468 53.589C79.2838 53.2607 79.1899 52.9311 78.9856 52.6721C78.9155 52.5811 78.8311 52.5023 78.7357 52.4386L79.2588 52.0182L83.9441 51.9773C84.0393 51.9766 84.1333 51.9569 84.2209 51.9194C84.3084 51.882 84.3877 51.8275 84.4542 51.7591C84.5207 51.6907 84.573 51.6097 84.6082 51.5209C84.6433 51.4321 84.6607 51.3372 84.6591 51.2416V51.0606H80.4098ZM75.2653 51.1073C75.1828 51.0964 75.107 51.0558 75.0521 50.993C74.9971 50.9301 74.9669 50.8493 74.9669 50.7657C74.9669 50.6821 74.9971 50.6014 75.0521 50.5385C75.107 50.4757 75.1828 50.435 75.2653 50.4242H77.0731C77.1179 50.4234 77.1624 50.4316 77.2039 50.4482C77.2455 50.4649 77.2834 50.4897 77.3153 50.5213C77.3472 50.5528 77.3726 50.5904 77.3899 50.6318C77.4072 50.6733 77.4161 50.7178 77.4161 50.7628C77.4169 50.8078 77.4087 50.8524 77.3921 50.8942C77.3755 50.936 77.3508 50.974 77.3194 51.0061C77.2881 51.0381 77.2506 51.0636 77.2093 51.081C77.168 51.0984 77.1237 51.1073 77.0789 51.1073H75.2653ZM78.2241 53.6823L76.8057 54.815C76.7352 54.8706 76.6458 54.8962 76.5567 54.8863C76.4677 54.8765 76.3859 54.8321 76.3291 54.7625C76.3013 54.7273 76.2807 54.687 76.2686 54.6438C76.2565 54.6006 76.253 54.5554 76.2584 54.5109C76.2638 54.4663 76.278 54.4233 76.3001 54.3843C76.3222 54.3453 76.3518 54.3111 76.3872 54.2837L77.7998 53.1159C77.871 53.061 77.9608 53.0364 78.05 53.0473C78.1391 53.0582 78.2204 53.1038 78.2764 53.1743C78.3093 53.2097 78.3343 53.2517 78.3496 53.2976C78.3649 53.3435 78.3703 53.3921 78.3653 53.4402C78.3604 53.4884 78.3452 53.5349 78.3209 53.5766C78.2965 53.6184 78.2635 53.6544 78.2241 53.6823V53.6823Z" fill="#1B1C20"/>
<path d="M30.0865 12.9674C30.0865 12.4711 29.9644 12.3193 29.6272 12.3193H29.2029V13.6739H29.6272C29.9876 13.6564 30.0865 13.4462 30.0865 12.9674Z" fill="#1B1C20"/>
<path d="M30.1794 15.0868C30.1794 14.5029 30.0457 14.3511 29.7086 14.3511H29.1912V15.84H29.7028C30.0574 15.84 30.1794 15.6765 30.1794 15.0868Z" fill="#1B1C20"/>
<path d="M25.3315 13.0373C25.3315 12.4534 25.2036 12.2899 24.8723 12.2899H24.4595V13.808H24.8723C25.2268 13.808 25.3315 13.5978 25.3315 13.0373Z" fill="#1B1C20"/>
<path d="M20.0009 12.4009H19.9893L19.5649 14.7774H20.4253L20.0009 12.4009Z" fill="#1B1C20"/>
<path d="M15.8155 15.0868C15.8155 14.5029 15.6818 14.3511 15.3447 14.3511H14.8273V15.84H15.3389C15.6818 15.84 15.8155 15.6765 15.8155 15.0868Z" fill="#1B1C20"/>
<path d="M15.7109 12.9674C15.7109 12.4711 15.5947 12.3193 15.2575 12.3193H14.8273V13.6739H15.2575C15.6121 13.6564 15.7109 13.4462 15.7109 12.9674Z" fill="#1B1C20"/>
<path d="M39.2595 13.0373C39.2595 12.4534 39.1374 12.2899 38.806 12.2899H38.3933V13.808H38.806C39.1548 13.808 39.2595 13.5978 39.2595 13.0373Z" fill="#1B1C20"/>
<path d="M58.2855 13.1482C58.2855 12.4884 58.1635 12.2899 57.8612 12.2899H57.3671V14.0416H57.8612C58.1635 14.0416 58.2855 13.8022 58.2855 13.1482Z" fill="#1B1C20"/>
<path d="M52.9375 15.9218C53.3154 15.9218 53.4839 15.6999 53.4839 15.0868V13.0374C53.4839 12.4535 53.3154 12.2199 52.9433 12.2199C52.5713 12.2199 52.3969 12.4301 52.3969 13.0315V15.0868C52.3969 15.6999 52.5655 15.9218 52.9375 15.9218Z" fill="#1B1C20"/>
</svg>
