<svg width="420" height="386" viewBox="0 0 420 386" fill="none" xmlns="http://www.w3.org/2000/svg">
<path d="M375.4 129.3C345.4 109.6 302.3 115.3 275.9 91C272.5 87.9 269.6 84.4 266.8 80.8C258.6 70.1 248.5 61 236.7 54.6C231.9 52 227 49.8 222.1 47.9C175.8 29.9 123.3 43.1 89.3997 79.4C65.0997 105.4 47.4997 138.3 37.7997 172.7C31.1997 195.8 27.8997 220.6 33.9997 243.9C40.0997 267.2 57.0997 288.6 80.2997 294.8C91.1997 297.7 102.9 297.2 114 295C136.8 290.4 157.5 278.9 178.5 269.1C199.6 259.3 222.3 250.8 245.5 252.8C265.7 254.6 284.3 264.2 304.3 267.7C328.1 271.8 353.6 266.7 373.2 252.5C392.8 238.4 405.9 215.2 406.7 191.1C407.5 167.1 395.6 142.6 375.4 129.3Z" fill="#F0F4FF"/>
<path d="M373.4 349.4C375.9 355 375.7 361.9 372.4 367C369.2 372 363.6 374.9 357.8 376.2C352 377.4 346.1 377.1 340.2 376.7C319 375.1 297.8 372.3 276.6 373.5C267.6 374 258.6 375.2 249.6 375.1C240.6 374.9 231.4 373.2 223.8 368.3C216.2 363.4 210.4 354.3 212.3 345.4C214.2 336.5 222.8 330.8 231 327.1C252.6 317.2 278.2 313.7 300.1 322.8C305.4 325 310.4 327.9 315.6 330.3C327.9 335.9 341.4 338.6 354.9 338.1C362.7 337.8 370 342.1 373.2 349.1C373.3 349.2 373.3 349.3 373.4 349.4Z" fill="#E6EDFF"/>
<path d="M288.9 196.9C276.1 202.1 264 208.8 251.4 214.6C231.4 223.7 210.2 230.3 188.6 234C219.2 238.9 251.4 237.6 282.4 233.9C321.8 229.2 361.1 221.1 400.5 218.8C404.2 210.2 406.3 201 406.7 191.7C406.8 189.6 406.8 189.5 406.7 187.4C398.5 185.6 387.7 184.3 381.6 184C350.3 182.2 318.2 185.1 288.9 196.9Z" fill="#E6EDFF"/>
<path d="M282.399 233.8C251.399 237.5 219.2 238.8 188.6 233.9C168.2 230.6 148.499 224.6 130.299 214.6C116.499 207 103.499 197.2 87.9995 194.4C71.3995 191.5 54.2995 197.3 40.3995 206.7C37.0995 208.9 33.9995 211.4 30.8995 213.9C30.4995 224.1 31.3995 234.3 33.9995 244.3C40.0995 267.6 57.0995 289 80.2995 295.2C91.1995 298.1 102.899 297.6 113.999 295.4C122.699 293.6 131.099 290.9 139.399 287.6C152.699 282.3 165.6 275.6 178.6 269.5C199.7 259.7 222.4 251.2 245.6 253.2C265.799 255 284.399 264.6 304.399 268.1C328.199 272.2 353.699 267.1 373.299 252.9C385.299 244.2 394.799 232.2 400.599 218.6C361.099 221 321.799 229.1 282.399 233.8Z" fill="#D8E3FF"/>
<path d="M124.1 267.7C114.8 266.2 104.9 269.6 95.8996 266.5C80.9996 261.5 75.5996 241.2 60.5996 236.3C51.4996 233.3 41.9996 237.1 33.5996 242.3C33.7996 242.9 33.8996 243.6 33.9996 244.2C40.0996 267.5 57.0996 288.9 80.2996 295.1C91.1996 298 102.9 297.5 114 295.3C124.7 293.1 134.9 289.5 144.9 285.2C141.7 276.4 133.5 269.3 124.1 267.7Z" fill="#C5D7F9"/>
<path d="M105.699 284.6C107.899 278.7 105.799 270.7 99.8994 268.8C95.4994 267.3 89.4994 269.1 86.8994 265.2C84.9994 262.4 86.3994 258.7 87.8994 255.7C92.7994 246.4 99.5994 236.7 97.2994 226.5C96.8994 224.9 96.2994 223.4 95.1994 222.3C92.4994 219.8 88.1994 220.9 84.8994 222.4C65.7994 231.2 54.1994 250.7 46.3994 270.4C54.8994 282.3 66.5994 291.5 80.6994 295.3C85.4994 296.6 90.3994 297.2 95.2994 297.3C99.4994 293.7 103.799 289.8 105.699 284.6Z" fill="#F0F4FF"/>
<path d="M406.199 197.9C394.299 189.2 376.699 188.6 364.499 197C362.799 198.2 361.099 199.6 360.199 201.5C356.199 209.8 368.999 218.7 366.099 227.4C364.999 230.9 361.599 233.1 358.499 234.8C350.299 239.4 340.899 243.8 337.299 252.4C335.299 257.3 335.699 263.1 338.199 267.7C350.699 265.3 362.799 260.4 373.099 252.9C390.899 240.1 403.499 219.7 406.199 197.9Z" fill="#B7D0F9"/>
<path d="M100.499 142.6C112.999 142.5 125.099 147.2 137.499 147.3C149.999 147.4 164.299 140.1 165.099 127.7C165.799 116.1 154.299 107.3 142.999 104.6C131.699 101.9 119.699 103 108.599 99.8C99.3993 97.1 91.4993 91.5 83.0993 86.7C65.5993 107.3 51.9993 131.7 42.7993 157.2C50.5993 155.6 58.1993 153.5 65.7993 151.1C77.1993 147.3 88.5993 142.7 100.499 142.6Z" fill="white"/>
<path d="M223.399 88.9C218.999 90.8 212.599 92.2 212.599 97C212.599 100.6 216.499 102.8 220.099 103.7C225.199 104.9 230.699 104.9 235.799 103.6C241.699 102.1 247.099 98.9 253.099 98.1C262.599 96.8 271.799 101.5 281.299 103.2C285.999 104 290.899 104.1 295.599 103.4C288.499 100.4 281.999 96.5 276.199 91.2C272.799 88.1 269.899 84.6 267.099 81C264.599 77.7 261.699 74.5 258.799 71.6C251.299 72 244.099 74 237.999 78.3C232.999 81.7 228.999 86.6 223.399 88.9Z" fill="white"/>
<path d="M270.202 143.938C267.102 142.338 263.602 141.338 260.102 140.938C253.802 140.238 245.602 137.638 240.902 136.138C239.102 135.538 237.402 134.738 235.702 134.038C232.302 132.638 228.402 132.638 225.002 134.138C220.402 136.238 217.302 140.738 213.102 143.538C210.002 145.638 206.302 146.638 202.702 147.538C197.302 148.838 191.802 149.638 186.302 149.938C183.802 150.138 181.202 150.238 179.702 153.138C178.702 155.038 178.802 157.438 179.802 159.338C181.802 163.238 186.002 164.938 190.002 166.138C193.802 167.238 197.702 168.038 201.702 167.738C207.802 167.238 213.402 164.038 219.302 162.338C231.402 158.838 244.302 161.938 256.902 163.038C262.002 163.538 267.302 163.638 271.802 160.738C273.302 159.838 274.502 158.538 275.402 156.938C278.602 151.238 274.802 146.238 270.202 143.938Z" fill="white"/>
<path d="M262.4 175.3C262.4 175.3 286.2 201.2 294.6 217.4C294.6 217.4 321 197.2 339.2 195.9C339 196.8 336.9 171.6 325.5 162.5C322.5 162.8 313.6 164.3 300.2 171.5C300.2 171.4 279.1 168.1 262.4 175.3Z" fill="white"/>
<path d="M351.7 335.5H340C339.6 335.5 339 335.7 338.6 336C337.1 336.8 335.4 337.6 333.8 338.1C332.7 338.4 331.7 338.7 330.8 338.9L329.6 339.1C326.8 339.4 324.7 341.8 324.7 344.6C324.7 347.5 327 349.9 329.8 350.1H340H349.8H351.7C353.4 350.1 354.8 348.7 354.8 347V338.4C354.7 336.8 353.3 335.5 351.7 335.5Z" fill="#3D3F65"/>
<path d="M351.6 350.1C353.3 350.1 354.7 348.7 354.7 347V338.4C354.7 336.7 353.3 335.3 351.6 335.3H343.4V350H349.8H351.6V350.1Z" fill="#1A1C45"/>
<path d="M332 349.6V338.5C331.5 338.6 331.1 338.7 330.7 338.8L329.5 339C326.7 339.3 324.6 341.7 324.6 344.5C324.6 347.4 326.9 349.8 329.7 350H332.1C332.1 350 332 349.8 332 349.6Z" fill="white"/>
<path d="M337.8 347.3H325.3C326.2 348.9 327.8 349.9 329.7 350.1H340H349.8H351.7C353.3 350.1 354.7 348.9 354.7 347.3H352.1H337.8Z" fill="white"/>
<path d="M339.4 338.5C338.9 337.6 338.5 336.7 338 335.8C337.5 334.8 335.9 335.7 336.5 336.7C337 337.6 337.4 338.5 337.9 339.4C338.4 340.4 339.9 339.5 339.4 338.5Z" fill="white"/>
<path d="M335.1 340.1C334.6 339.2 334.2 338.3 333.7 337.4C333.2 336.4 331.6 337.3 332.2 338.3C332.7 339.2 333.1 340.1 333.6 341C334.1 342 335.6 341.1 335.1 340.1Z" fill="white"/>
<path d="M325.1 335.3H313.5C313.1 335.3 312.5 335.5 312.1 335.8C310.6 336.6 308.9 337.4 307.3 337.9C306.2 338.2 305.2 338.5 304.3 338.7L303.1 338.9C300.3 339.2 298.2 341.6 298.2 344.4C298.2 347.3 300.5 349.7 303.3 349.9H313.6H323.4H325.3C327 349.9 328.4 348.5 328.4 346.8V338.2C328.1 336.7 326.7 335.3 325.1 335.3Z" fill="#3D3F65"/>
<path d="M325 350C326.7 350 328.1 348.6 328.1 346.9V338.3C328.1 336.6 326.7 335.2 325 335.2H316.8V350H323.2H325Z" fill="#1A1C45"/>
<path d="M305.4 349.5V338.4C304.9 338.5 304.5 338.6 304.1 338.7L302.9 338.9C300.1 339.2 298 341.6 298 344.4C298 347.3 300.3 349.7 303.1 349.9H305.5C305.5 349.8 305.4 349.7 305.4 349.5Z" fill="white"/>
<path d="M311.2 347.2H298.7C299.6 348.8 301.2 349.8 303.1 350H313.4H323.2H325.1C326.7 350 328.1 348.8 328.2 347.2H325.6H311.2Z" fill="white"/>
<path d="M312.8 338.4C312.3 337.5 311.9 336.6 311.4 335.7C310.9 334.7 309.3 335.6 309.9 336.6C310.4 337.5 310.8 338.4 311.3 339.3C311.8 340.3 313.3 339.4 312.8 338.4Z" fill="white"/>
<path d="M308.5 339.9C308 339 307.6 338.1 307.1 337.2C306.6 336.2 305.1 337.1 305.6 338.1C306.1 339 306.5 339.9 307 340.8C307.5 341.9 309 341 308.5 339.9Z" fill="white"/>
<path d="M330.2 229.6C330.2 229.6 328.7 287.3 338.3 335C338.4 335.6 338.8 336 339.4 336.1C341.7 336.6 348 337.8 354.1 336.1C354.8 335.9 355.2 335.3 355.1 334.6C354.7 326.9 352.6 283.2 355 263.8C358.1 238.4 353.8 226 353.9 225.5" fill="#0044A7"/>
<path d="M340 244.2L330.6 251.7C330.9 269.5 332.2 296.6 336.2 322.7C333.4 300.3 340 244.2 340 244.2Z" fill="#003581"/>
<path d="M310.9 229.7C310.9 229.7 305.4 285.8 311.7 334.1C311.8 334.7 312.2 335.1 312.7 335.3C314.9 336 321.1 337.6 327.4 336.4C328.1 336.3 328.6 335.7 328.6 335C328.6 327.3 328.8 284.2 334.8 265.6C341.5 245.2 341.9 227.6 341.9 227.6" fill="#0044A7"/>
<path d="M339.3 153.6C338.7 162.1 330.3 166 325.5 165.6C320.6 165.3 321.1 160.9 321.7 152.3C322.3 143.8 325.6 139.5 330.5 139.8C335.3 140.2 339.9 145.1 339.3 153.6Z" fill="#FDA9A9"/>
<path d="M322 150.4L319.2 154.6C318.8 155.3 319 156.2 319.8 156.5L321.5 157.2" fill="#FDA9A9"/>
<path d="M339.5 160.8C339.5 160.8 338.8 167.3 340.9 170.1L328.4 171.5L326.5 161.3" fill="#FDA9A9"/>
<path d="M324.4 135.5C327 134.3 330 134.9 332.1 136.8C333.6 138.2 335.8 139.8 338.4 140.3C343.2 141.3 348.2 148.1 345.7 154.9C344 159.4 341.2 161.9 338.3 162.2C336.1 162.4 334.3 160.5 334.4 158.3C334.5 156.4 334.1 153.9 331.9 153.6C328.2 153 331.4 149.1 329.1 148.1C326.7 147.1 321.5 148.4 320.9 141.6C320.8 138.2 322.4 136.4 324.4 135.5Z" fill="#003169"/>
<path d="M321.9 157.4C321.2 157.1 320.5 157.1 319.9 157.6C319.2 158.2 318.5 159.3 318.5 161.7C318.5 165.1 317.6 168.9 318.2 171.3C318.5 172.6 319.7 173.4 320.8 173.2C323.3 172.8 329.2 171.1 331.3 165.1C333.8 157.7 331.1 161.7 321.9 157.4Z" fill="#003169"/>
<path d="M341.6 170C336.8 169.3 330.5 169.2 323.1 170.6C316.2 171.9 311.2 177.6 311 184.3C310.6 197.1 310 218.6 310.2 230.4C310.2 232.2 311.7 233.6 313.5 233.5C321.1 232.9 340.7 231.7 351.9 233.9C353.8 234.3 355.5 232.8 355.5 230.8C355.6 221.4 355.9 197.6 354.9 183.7C354.4 176.8 348.8 171.1 341.6 170Z" fill="#DBE5FC"/>
<path d="M308.7 232.1C308.7 233.5 308.8 234.7 308.8 235.9C308.8 236.6 309.4 237.1 310.1 237.1C316.2 236.6 342.8 234.7 355.3 238C356.1 238.2 356.9 237.6 356.9 236.8C356.9 235.9 356.9 234.7 356.9 233.2C356.9 232.6 356.5 232.1 356 232C343.7 228.8 318.8 230.3 309.8 230.9C309.2 230.9 308.7 231.5 308.7 232.1Z" fill="#003581"/>
<path d="M327.6 185.3C327.6 185.3 327.4 169.7 320.3 171.5C320.3 171.5 321.7 170.4 323.5 169.8C325.3 169.2 327.2 170 328.1 171.6C329.1 173.3 330.4 176.5 331.5 182.4" fill="#FF7C00"/>
<path d="M356.6 167.9C356.4 167.9 356.2 167.9 356 167.9L330.2 167.3L328.7 180.4L354.4 180.5C355.3 180.5 356.1 180.4 356.9 180.1C358.9 179.3 360.4 177.5 360.8 175.1C361.3 171.4 359.4 168.2 356.6 167.9Z" fill="#003581"/>
<path d="M355.6 180.1H330.8V238.1H355.6C360.4 238.1 364.3 225.1 364.3 209.1C364.3 193 360.4 180.1 355.6 180.1Z" fill="#FDB602"/>
<path d="M334.4 174.4C334 178 331.5 180.7 328.7 180.4C326 180.1 324.1 176.9 324.5 173.3C324.9 169.7 327.4 167 330.2 167.3C333 167.7 334.8 170.8 334.4 174.4Z" fill="#4F94F9"/>
<path d="M338.6 209C338.6 225 335.1 238 330.8 238C326.5 238 323 225 323 209C323 193 326.5 180 330.8 180C335.1 180.1 338.6 193 338.6 209Z" fill="#FF7C00"/>
<path d="M330.8 232.6C327.7 232.6 325.2 230.1 325.2 227V205.7C325.2 202.6 327.7 200.1 330.8 200.1H330.9C334 200.1 336.5 202.6 336.5 205.7V227C336.4 230.1 333.9 232.6 330.8 232.6Z" fill="white"/>
<path d="M331.3 200.2C332.8 201.2 333.8 202.9 333.8 204.8V231.2C333.8 231.4 333.8 231.5 333.7 231.7C335.3 230.7 336.4 229 336.4 227V205.7C336.4 202.8 334.1 200.5 331.3 200.2Z" fill="#F0F4FF"/>
<path d="M318.3 219.1C319 212 324.7 191.6 324.6 179.5C324.6 173.9 318.6 171.1 314.9 174.9C311.4 178.7 307.4 185.4 306.2 196.8C306.2 196.8 305.9 203.1 305.3 206.6C305.2 207.2 305 207.5 304.7 207.6L313.4 227.7C315.4 227 317.8 224.9 318.3 219.1Z" fill="#F0F4FF"/>
<path d="M303.5 207.4C301.9 206.3 298.5 204.5 291.1 202C291.1 202 285.9 201.5 289 190C289.2 189.2 288.3 188.5 287.8 189.1C287.2 189.7 286.4 190.8 285.6 192.9C284.9 194.6 282.5 196 280.9 195.3C279.8 194.8 278.6 193.9 277.1 192.2C277.1 192.2 276.6 195.2 278.8 201C280 204.1 282.1 206.7 284.9 208.2C286.1 208.9 287.6 209.9 289 211.3C292.1 214.7 302 225.5 311.2 228.1C311.2 228.1 312.3 228.2 313.6 227.7L304.9 207.6C304.3 208 303.5 207.4 303.5 207.4Z" fill="#FDA9A9"/>
<path d="M324.4 216.4C323.6 216.4 323 217 323.1 217.8C324.2 229.6 327.3 238 330.8 238C334.4 238 337.4 229.6 338.5 217.8C338.6 217 337.9 216.4 337.2 216.4C335.1 216.5 333 216.6 330.8 216.6C328.6 216.6 326.4 216.5 324.4 216.4Z" fill="#FDA402"/>
<path d="M365 220.8C364.7 213.8 360.2 208.2 354.6 208.2C349 208.2 344.5 213.8 344.2 220.8C344.2 221 344.2 221.2 344.2 221.4V223.9C344.2 229.1 348.5 233.4 353.7 233.4H355.5C360.7 233.4 365 229.1 365 223.9V221.4C365 221.2 365 221 365 220.8Z" fill="#FF7C00"/>
<path d="M366.6 220.8C366.3 213.8 360.1 208.2 354.5 208.2C348.9 208.2 346.1 213.8 345.8 220.8C345.8 221 345.8 221.2 345.8 221.4V223.9C345.8 229.1 350.1 233.4 355.3 233.4H357.1C362.3 233.4 366.6 229.1 366.6 223.9V221.4C366.6 221.2 366.6 221 366.6 220.8Z" fill="#FDA402"/>
<path d="M356.1 187.6H341.4C340.8 187.6 340.3 187.1 340.3 186.5C340.3 185.9 340.8 185.4 341.4 185.4H356.1C356.7 185.4 357.2 185.9 357.2 186.5C357.2 187 356.7 187.6 356.1 187.6Z" fill="#FF7C00"/>
<path d="M314.3 228.1L313 228.6C311.1 229.4 308.9 228.3 308.3 226.3L303.2 209.4C302.7 208.1 303.2 206.7 304.5 206.1C305.7 205.6 307.2 206.1 307.7 207.4L316 223.1C317.1 225 316.3 227.3 314.3 228.1Z" fill="white"/>
<path d="M331.8 200.8H329.8C328.9 200.8 328.2 200.1 328.2 199.2V197.7C328.2 196.8 328.9 196.1 329.8 196.1H331.8C332.7 196.1 333.4 196.8 333.4 197.7V199.2C333.4 200.1 332.7 200.8 331.8 200.8Z" fill="#003581"/>
<path d="M323.7 242V247.9C323.7 249 323.9 250 324.5 251C325.6 252.8 327.5 253.9 329.6 253.9C331.8 253.9 333.6 252.7 334.7 251C335.3 250 335.5 249 335.5 247.9V242C335.5 241.3 334.8 240.8 334 240.8H325.1C324.4 240.8 323.7 241.4 323.7 242Z" fill="#003581"/>
<path d="M345.8 242V247.9C345.8 249 346 250 346.4 251C347.3 252.8 348.8 253.9 350.6 253.9C352.4 253.9 353.9 252.7 354.8 251C355.3 250 355.4 249 355.4 247.9V242C355.4 241.3 354.9 240.8 354.2 240.8H347C346.3 240.8 345.8 241.4 345.8 242Z" fill="#003581"/>
<path d="M326.5 216.5C325.8 216.5 325 216.4 324.3 216.4C323.5 216.4 322.9 217 323 217.8C324.1 229.6 327.2 238 330.7 238C326 232.2 326.5 216.5 326.5 216.5Z" fill="#FDB602"/>
<path d="M108 168H76V157.3L106.8 111.5H121.2V155.7H129.9V168.1H121.2V180.9H108V168ZM108 131.3H107.2L90.7 155.7H108V131.3Z" fill="#B7D0F9"/>
<path d="M167.9 182.4C163.4 182.4 159.4 181.5 155.8 179.6C152.2 177.7 149.2 175.2 146.6 172C144.1 168.8 142.1 164.9 140.8 160.5C139.4 156.1 138.8 151.3 138.8 146.2C138.8 141.1 139.5 136.3 140.8 131.9C142.1 127.5 144.1 123.6 146.6 120.4C149.1 117.2 152.2 114.6 155.8 112.8C159.4 110.9 163.4 110 167.9 110C172.4 110 176.4 110.9 180 112.8C183.6 114.7 186.6 117.2 189.2 120.4C191.7 123.6 193.7 127.5 195 131.9C196.4 136.3 197 141.1 197 146.2C197 151.3 196.3 156.1 195 160.5C193.7 164.9 191.7 168.8 189.2 172C186.7 175.2 183.6 177.8 180 179.6C176.4 181.5 172.3 182.4 167.9 182.4ZM167.9 169.9C170.3 169.9 172.5 169.3 174.5 168.1C176.5 166.9 178.1 165.3 179.5 163.1C180.9 161 181.9 158.5 182.6 155.6C183.3 152.7 183.7 149.6 183.7 146.2C183.7 142.8 183.3 139.6 182.6 136.7C181.9 133.8 180.8 131.3 179.5 129.2C178.1 127.1 176.4 125.4 174.5 124.2C172.5 123 170.3 122.4 167.9 122.4C165.4 122.4 163.2 123 161.2 124.2C159.2 125.4 157.6 127 156.2 129.2C154.8 131.3 153.8 133.8 153.1 136.7C152.4 139.6 152 142.7 152 146.2C152 149.6 152.4 152.7 153.1 155.6C153.8 158.5 154.8 161 156.2 163.1C157.6 165.2 159.2 166.9 161.2 168.1C163.2 169.3 165.4 169.9 167.9 169.9Z" fill="#B7D0F9"/>
<path d="M237.5 168H205.5V157.3L236.3 111.5H250.7V155.7H259.4V168.1H250.7V180.9H237.5V168ZM237.5 131.3H236.7L220.1 155.7H237.4V131.3H237.5Z" fill="#B7D0F9"/>
</svg>
