<svg width="20" height="16" viewBox="0 0 20 16" fill="none" xmlns="http://www.w3.org/2000/svg">
<path d="M19 0H1C0.734784 0 0.48043 0.105357 0.292893 0.292893C0.105357 0.48043 0 0.734784 0 1V15C0 15.2652 0.105357 15.5196 0.292893 15.7071C0.48043 15.8946 0.734784 16 1 16H19C19.2652 16 19.5196 15.8946 19.7071 15.7071C19.8946 15.5196 20 15.2652 20 15V1C20 0.734784 19.8946 0.48043 19.7071 0.292893C19.5196 0.105357 19.2652 0 19 0ZM18 14H2V5.227L9.335 11.748C9.51855 11.9103 9.75517 11.9998 10.0002 11.9996C10.2452 11.9995 10.4817 11.9096 10.665 11.747L18 5.227V14ZM18 2.552L10 9.662L2 2.551V2H18V2.552Z" fill="#C9C9C9"/>
</svg>
